# xmcd
#
# Track frame offsets:
# 152
# 17660
# 33445
# 51552
# 67400
# 86172
# 105502
# 125652
# 140270
# 157582
# 189457
# 205232
# 224262
# 241605
# 261140
# 278345
#
# Disc length: 3919 seconds
#
#
# Revision: 4
# Processed by: cddbd v1.5.1PL0 Copyright (c) Steve Scherf et al.
# Submitted via: FreeRIP 2.941 
#
DISCID=e00f4d10
DTITLE=Samle CD - Kose Rock 1 - Kose Rock 1
DYEAR=2002
DGENRE=Blues
TTITLE0=Nazareth - Love Hurts
TTITLE1=Bonnie Tyler - It's a heartache
TTITLE2=Procol Harum - A Whiter Shade of Pale
TTITLE3=10CC - I'm not in love
TTITLE4=As we speak - Love me for a reason
TTITLE5=Barry White - You're the one I need
TTITLE6=Ruby Turner - Every little bit hurts
TTITLE7=Al Green - Let's stay together
TTITLE8=Tom Jones - At this moment
TTITLE9=Eric Carmen - All by myself
TTITLE10=Timmy T - One more try
TTITLE11=One more Time - The Dolphin
TTITLE12=Don McLean - Crying
TTITLE13=Sneaker - More than just the two of us
TTITLE14=KC and the sunshine band - Please don't go
TTITLE15=Harold Melvin and The Blue Notes - If you don't know me by now
EXTD=
EXTT0=
EXTT1=
EXTT2=
EXTT3=
EXTT4=
EXTT5=
EXTT6=
EXTT7=
EXTT8=
EXTT9=
EXTT10=
EXTT11=
EXTT12=
EXTT13=
EXTT14=
EXTT15=
PLAYORDER=
